# xmcd
#
# Track frame offsets:
#	150
#	15428
#	27636
#	39342
#	51728
#	63022
#	75693
#	94004
#	104406
#	119074
#	131506
#	143620
#	156185
#
# Disc length: 2232 seconds
#
# Revision: 0
# Processed by: cddbd v1.4PL0 Copyright (c) Steve Scherf et al.
# Submitted via: dBpowerAMP V4.0
#
DISCID=ac08b60d
DTITLE=Bret Graham - 1999
DYEAR=1999
DGENRE=Country
TTITLE0=Like Willie
TTITLE1=All Over But the Lyin'
TTITLE2=God's Love
TTITLE3=Hillbilly Blues
TTITLE4=Love Me Like You Did
TTITLE5=Headin' to the Lake
TTITLE6=Too Deep in Love
TTITLE7=Two Dollar Suitcase
TTITLE8=Four Wheel Drive
TTITLE9=Borrowed Wine
TTITLE10=Bright Ray of Sunshine
TTITLE11=When the Rockin' R Burned Down
TTITLE12=Honky Tonk 101
EXTD=
EXTT0=
EXTT1=
EXTT2=
EXTT3=
EXTT4=
EXTT5=
EXTT6=
EXTT7=
EXTT8=
EXTT9=
EXTT10=
EXTT11=
EXTT12=
PLAYORDER=
